<?xml version="1.0" standalone="no"?>
<!DOCTYPE svg PUBLIC "-//W3C//DTD SVG 20010904//EN"
 "http://www.w3.org/TR/2001/REC-SVG-20010904/DTD/svg10.dtd">
<svg version="1.0" xmlns="http://www.w3.org/2000/svg"
 width="400.000000pt" height="400.000000pt" viewBox="0 0 400.000000 400.000000"
 preserveAspectRatio="xMidYMid meet">
<metadata>
Created by potrace 1.11, written by Peter Selinger 2001-2013
</metadata>
<g transform="translate(0.000000,400.000000) scale(0.100000,-0.100000)"
fill="#000000" stroke="none">
<path d="M70 2685 l0 -1255 365 0 c285 0 365 3 366 13 0 6 1 313 1 681 1 555
3 666 14 650 7 -10 17 -23 21 -29 9 -11 465 -679 649 -950 59 -88 125 -185
147 -215 21 -30 52 -76 69 -102 l30 -48 140 0 c139 0 142 -1 177 -27 142 -109
360 -197 679 -274 317 -76 399 -115 459 -216 87 -148 -31 -325 -233 -350 -160
-19 -278 13 -374 103 -67 63 -104 142 -135 287 l-6 29 -82 -6 c-45 -3 -127 -8
-182 -12 -55 -3 -125 -7 -155 -9 -93 -6 -284 -18 -302 -19 -24 0 -24 -18 6
-171 9 -46 59 -183 84 -230 87 -163 202 -281 337 -348 70 -35 180 -72 239 -82
17 -3 38 -8 47 -11 10 -2 30 -6 45 -8 16 -2 49 -7 74 -10 108 -15 397 -22 490
-12 120 13 163 20 230 36 96 22 202 61 265 95 318 175 476 483 432 841 -22
185 -133 357 -305 470 -163 109 -351 173 -861 294 -159 37 -221 66 -260 120
-23 32 -28 47 -24 77 16 126 109 184 283 179 117 -4 190 -29 250 -87 44 -43
90 -130 100 -189 l6 -35 74 1 c71 1 251 10 385 19 33 2 107 7 164 10 58 3 108
8 112 10 16 11 -38 217 -82 310 -118 251 -354 388 -739 430 -150 17 -492 4
-582 -21 -17 -5 -18 31 -18 655 l0 661 -367 -2 -368 -3 0 -683 c0 -375 -1
-682 -2 -682 -3 0 -238 343 -242 354 -2 6 -9 16 -15 22 -6 7 -49 69 -96 138
-47 70 -119 176 -160 236 -41 60 -153 224 -248 365 l-173 255 -365 0 -364 0 0
-1255z"/>
</g>
</svg>
